<?xml version="1.0" standalone="no"?>
<!DOCTYPE svg PUBLIC "-//W3C//DTD SVG 20010904//EN"
 "http://www.w3.org/TR/2001/REC-SVG-20010904/DTD/svg10.dtd">
<svg version="1.0" xmlns="http://www.w3.org/2000/svg"
 width="180.000000pt" height="180.000000pt" viewBox="0 0 180.000000 180.000000"
 preserveAspectRatio="xMidYMid meet">
<metadata>
Created by potrace 1.14, written by Peter Selinger 2001-2017
</metadata>
<g transform="translate(0.000000,180.000000) scale(0.100000,-0.100000)"
fill="#000000" stroke="none">
<path d="M250 910 l0 -260 70 0 70 0 0 260 0 260 -70 0 -70 0 0 -260z"/>
<path d="M430 910 l0 -260 65 0 65 0 1 108 1 107 17 -105 16 -105 47 -3 46 -3
8 58 c4 32 12 94 19 138 l13 80 1 -137 1 -138 60 0 60 0 0 260 0 260 -89 0
c-102 0 -95 8 -107 -114 -8 -75 -18 -70 -28 14 -14 107 -6 100 -107 100 l-89
0 0 -260z"/>
<path d="M890 910 l0 -260 129 0 c123 0 131 1 158 24 l28 24 0 212 0 212 -28
24 c-27 23 -35 24 -158 24 l-129 0 0 -260z m174 144 c8 -20 8 -252 0 -281 -4
-13 -13 -23 -20 -23 -11 0 -14 30 -14 160 0 130 3 160 14 160 8 0 17 -7 20
-16z"/>
<path d="M1250 910 l0 -260 65 0 c36 0 65 4 65 10 0 5 15 2 34 -6 45 -22 98
-12 126 23 18 23 20 40 20 165 l0 140 -29 29 c-31 31 -68 37 -115 19 l-26 -10
0 75 0 75 -70 0 -70 0 0 -260z m170 -65 c0 -87 -3 -105 -15 -105 -12 0 -15 18
-15 105 0 87 3 105 15 105 12 0 15 -18 15 -105z"/>
</g>
</svg>
